<?xml version="1.0" encoding="UTF-8" standalone="no"?>
<!-- Created with Inkscape (http://www.inkscape.org/) -->

<svg
   xmlns:dc="http://purl.org/dc/elements/1.1/"
   xmlns:cc="http://creativecommons.org/ns#"
   xmlns:rdf="http://www.w3.org/1999/02/22-rdf-syntax-ns#"
   xmlns:svg="http://www.w3.org/2000/svg"
   xmlns="http://www.w3.org/2000/svg"
   xmlns:sodipodi="http://sodipodi.sourceforge.net/DTD/sodipodi-0.dtd"
   xmlns:inkscape="http://www.inkscape.org/namespaces/inkscape"
   width="150"
   height="30"
   viewBox="0 0 39.687497 7.9374999"
   version="1.1"
   id="svg1485"
   inkscape:version="0.92.2 5c3e80d, 2017-08-06"
   sodipodi:docname="beat.svg">
  <defs
     id="defs1479" />
  <sodipodi:namedview
     id="base"
     pagecolor="#ffffff"
     bordercolor="#666666"
     borderopacity="1.0"
     inkscape:pageopacity="0.0"
     inkscape:pageshadow="2"
     inkscape:zoom="2.8"
     inkscape:cx="98.994749"
     inkscape:cy="-15.964256"
     inkscape:document-units="mm"
     inkscape:current-layer="layer1"
     showgrid="false"
     fit-margin-top="0"
     fit-margin-left="0"
     fit-margin-right="0"
     fit-margin-bottom="0"
     inkscape:window-width="1920"
     inkscape:window-height="1027"
     inkscape:window-x="1366"
     inkscape:window-y="26"
     inkscape:window-maximized="1"
     units="px" />
  <metadata
     id="metadata1482">
    <rdf:RDF>
      <cc:Work
         rdf:about="">
        <dc:format>image/svg+xml</dc:format>
        <dc:type
           rdf:resource="http://purl.org/dc/dcmitype/StillImage" />
        <dc:title></dc:title>
      </cc:Work>
    </rdf:RDF>
  </metadata>
  <g
     inkscape:label="Layer 1"
     inkscape:groupmode="layer"
     id="layer1"
     transform="translate(-156.48668,-140.78553)">
    <path
       id="rect5505-21-9-9-5-5-1-6"
       style="color:#000000;font-style:normal;font-weight:normal;font-size:10.58333302px;line-height:6.61458349px;font-family:sans-serif;letter-spacing:0px;word-spacing:0px;display:inline;overflow:visible;visibility:visible;fill:#1a1a1a;fill-opacity:1;fill-rule:nonzero;stroke:none;stroke-width:0.11826887;stroke-linecap:butt;stroke-linejoin:miter;stroke-opacity:1;marker:none;enable-background:accumulate"
       d="m 163.33756,142.39485 c -0.13094,0 -0.23629,0.10552 -0.23629,0.23667 v 4.14284 c 0,0.13115 0.10535,0.23668 0.23629,0.23668 h 4.13613 c 0.13093,0 0.23629,-0.10553 0.23629,-0.23668 v -4.14284 c 0,-0.13115 -0.10536,-0.23667 -0.23629,-0.23667 z m 1.09576,0.9248 h 0.50373 v 0.37841 h -0.50373 z m 1.41881,0 h 0.50373 v 0.37841 h -0.50373 z m -2.13114,0.25249 h 0.50395 v 0.37863 h -0.50395 z m 2.84822,0 h 0.50374 v 0.37863 h -0.50374 z m -1.41729,0.25271 h 0.50373 v 0.37863 h -0.50373 z m 0.70021,0.12592 h 0.50373 v 0.37842 h -0.50373 z m -1.41881,0.001 h 0.50373 v 0.37863 h -0.50373 z m -0.70822,0.23971 h 0.49984 v 0.37841 h -0.49984 z m 2.84411,0 h 0.49963 v 0.37841 h -0.49963 z m -1.41838,0.26181 h 0.50396 v 0.37842 h -0.50396 z m 0.69697,0.11986 h 0.50374 v 0.37863 h -0.50374 z m -1.41448,0.008 h 0.50373 v 0.37842 h -0.50373 z m -0.71233,0.25011 h 0.50395 v 0.37842 h -0.50395 z m 2.84822,0.002 h 0.50374 v 0.37842 h -0.50374 z m -1.41729,0.24924 h 0.50373 v 0.37842 h -0.50373 z m 0.69588,0.12549 h 0.50374 v 0.37842 h -0.50374 z m -1.42011,0.008 h 0.50373 v 0.37864 h -0.50373 z m 0.72747,0.50152 h 0.50374 v 0.37842 h -0.50374 z m 22.62041,-2.30618 q 0.31426,0 0.61869,0.0622 0.30443,0.0589 0.54339,0.19313 0.23896,0.13421 0.38627,0.35353 0.1473,0.21606 0.1473,0.5303 h -1.24063 q -0.003,-0.10474 -0.0524,-0.17021 -0.0491,-0.0687 -0.12112,-0.10475 -0.0687,-0.0393 -0.15057,-0.0524 -0.0818,-0.0131 -0.15058,-0.0131 -0.0426,0 -0.12439,0.003 -0.0818,0.003 -0.16368,0.0262 -0.0786,0.0196 -0.13749,0.0655 -0.0589,0.0459 -0.0589,0.13094 0,0.0949 0.0982,0.15058 0.0982,0.0524 0.2586,0.0851 0.16039,0.0327 0.36663,0.0589 0.20622,0.0262 0.41899,0.0687 0.21606,0.0393 0.42228,0.11129 0.20623,0.0687 0.36663,0.18987 0.1604,0.12111 0.2586,0.30443 0.0982,0.18331 0.0982,0.45501 0,0.36335 -0.15058,0.60558 -0.14731,0.24224 -0.39937,0.38628 -0.25205,0.14402 -0.58594,0.20295 -0.33062,0.0589 -0.69397,0.0589 -0.3339,0 -0.66124,-0.0687 -0.32407,-0.0687 -0.58268,-0.21605 -0.2586,-0.15058 -0.419,-0.383 -0.1604,-0.23568 -0.1604,-0.5663 h 1.23737 v 0.0262 q 0.003,0.12766 0.0655,0.2095 0.0655,0.0786 0.15386,0.12439 0.0916,0.0426 0.18986,0.0589 0.10147,0.0163 0.17677,0.0163 0.0687,0 0.16367,-0.007 0.0982,-0.007 0.18331,-0.0294 0.0884,-0.0262 0.14731,-0.0786 0.0622,-0.0524 0.0622,-0.1473 0,-0.0982 -0.0982,-0.15713 -0.0982,-0.0589 -0.25861,-0.0949 -0.1604,-0.0393 -0.36662,-0.0687 -0.20623,-0.0295 -0.42228,-0.0753 -0.21278,-0.0459 -0.419,-0.11457 -0.20623,-0.072 -0.36663,-0.18986 -0.1604,-0.12112 -0.2586,-0.29789 -0.0982,-0.18004 -0.0982,-0.44191 0,-0.35026 0.14731,-0.5794 0.1473,-0.23242 0.39281,-0.36991 0.24551,-0.13748 0.56631,-0.19313 0.3208,-0.0589 0.67106,-0.0589 z m -3.04758,0.0818 h 0.75289 v 0.90348 h -0.75289 v 1.34866 q 0,0.11457 0.0163,0.19968 0.0163,0.0851 0.0589,0.14403 0.0426,0.0589 0.11458,0.0884 0.072,0.0294 0.18658,0.0294 h 0.37645 v 0.78563 q -0.0851,0.0262 -0.19641,0.0491 -0.11129,0.0229 -0.22914,0.0393 -0.11784,0.0163 -0.23241,0.0229 -0.1113,0.01 -0.19969,0.01 -0.27169,0 -0.49756,-0.0459 -0.22587,-0.0459 -0.38954,-0.15385 -0.1604,-0.1113 -0.25206,-0.29134 -0.0884,-0.18331 -0.0884,-0.45501 v -1.77093 h -0.49756 v -0.90348 h 0.54994 l 0.28807,-1.07369 h 0.99186 z m -4.21948,-0.0818 q 0.36334,0 0.69397,0.0589 0.33389,0.0557 0.58594,0.18986 0.25533,0.13421 0.40264,0.35681 0.15058,0.21932 0.15058,0.54666 v 1.3814 q 0,0.1113 0.0491,0.18658 0.0524,0.0753 0.16368,0.0753 h 0.24223 v 0.77253 q -0.0753,0.0393 -0.18004,0.0687 -0.0884,0.0262 -0.21932,0.0459 -0.13094,0.0196 -0.29788,0.0196 -0.40591,0 -0.65142,-0.12112 -0.24224,-0.12112 -0.33389,-0.32407 -0.1113,0.0884 -0.24224,0.17022 -0.13094,0.0786 -0.29134,0.14075 -0.1604,0.0622 -0.35353,0.0982 -0.18986,0.036 -0.42228,0.036 -0.27497,0 -0.50738,-0.0524 -0.22914,-0.0491 -0.39282,-0.16694 -0.16367,-0.11785 -0.25533,-0.3077 -0.0916,-0.18987 -0.0916,-0.46811 0,-0.39609 0.16367,-0.64159 0.16695,-0.24879 0.4812,-0.38628 0.31425,-0.13748 0.76926,-0.18331 0.45501,-0.0491 1.03441,-0.0491 v -0.17349 q 0,-0.10803 -0.0426,-0.18659 -0.0393,-0.0818 -0.10803,-0.13094 -0.0687,-0.0524 -0.16367,-0.0786 -0.0949,-0.0262 -0.20296,-0.0262 -0.0884,0 -0.18004,0.0163 -0.0884,0.0131 -0.16367,0.0491 -0.072,0.036 -0.11784,0.0949 -0.0458,0.0589 -0.0458,0.14731 v 0.0295 h -1.31594 q -0.007,-0.0262 -0.007,-0.0459 0,-0.0229 0,-0.0491 0,-0.24551 0.11784,-0.44519 0.11785,-0.20295 0.35026,-0.34698 0.23569,-0.14404 0.5794,-0.2226 0.34699,-0.0786 0.802,-0.0786 z m 0.49756,2.07864 q -0.29789,0 -0.51066,0.036 -0.2095,0.0327 -0.34371,0.0949 -0.13421,0.0589 -0.19641,0.14404 -0.0622,0.0818 -0.0622,0.18004 0,0.10474 0.0393,0.17022 0.0393,0.0655 0.10148,0.10147 0.0655,0.036 0.1473,0.0524 0.0818,0.0131 0.16694,0.0131 0.12767,0 0.24551,-0.036 0.12112,-0.036 0.21278,-0.10148 0.0917,-0.0655 0.14403,-0.15385 0.0557,-0.0917 0.0557,-0.19968 z m -4.89382,-2.07864 q 0.47793,0 0.84783,0.11129 0.37317,0.10803 0.6285,0.33717 0.25533,0.22587 0.38627,0.57613 0.13421,0.34699 0.13421,0.82491 v 0.22914 h -2.65477 q 0,0.36663 0.16367,0.56959 0.16695,0.19967 0.54667,0.19967 0.18004,0 0.30443,-0.0393 0.12439,-0.0393 0.19968,-0.10802 0.0786,-0.072 0.1113,-0.16368 0.036,-0.0949 0.036,-0.20295 h 1.29301 q 0,0.31752 -0.12111,0.57285 -0.11784,0.25206 -0.36008,0.42882 -0.23896,0.17677 -0.59904,0.2717 -0.35681,0.0949 -0.83474,0.0949 -0.47792,0 -0.86419,-0.10803 -0.38299,-0.11129 -0.65142,-0.34043 -0.26842,-0.22914 -0.41245,-0.57613 -0.14403,-0.35026 -0.14403,-0.82818 0,-0.46483 0.14076,-0.81182 0.14075,-0.34698 0.39936,-0.57613 0.26188,-0.23241 0.6285,-0.34699 0.3699,-0.11457 0.82164,-0.11457 z m 0.0524,0.8511 q -0.33716,0 -0.50411,0.16039 -0.16368,0.16041 -0.19968,0.43537 h 1.30283 q 0,-0.27824 -0.15712,-0.43537 -0.15713,-0.16039 -0.44192,-0.16039 z m -3.92816,-1.84296 q 0.26188,0 0.49102,0.0851 0.23242,0.0818 0.40591,0.23242 0.17349,0.15058 0.27497,0.36008 0.10147,0.20622 0.10147,0.45501 0,0.25205 -0.0622,0.43537 -0.0622,0.18004 -0.17022,0.3077 -0.10475,0.12766 -0.24551,0.20623 -0.13748,0.0786 -0.29461,0.12439 v 0.0262 q 0.18004,0.0393 0.33717,0.12112 0.16039,0.0818 0.27824,0.21932 0.12112,0.13749 0.18986,0.33717 0.072,0.19968 0.072,0.47465 0,0.27497 -0.10476,0.50411 -0.10475,0.22587 -0.28806,0.38627 -0.18004,0.16039 -0.42555,0.24878 -0.24224,0.0884 -0.52048,0.0884 h -3.10978 v -4.6123 z m -1.59089,2.7497 v 0.78891 h 1.12607 q 0.072,0 0.13421,-0.0262 0.0655,-0.0294 0.11129,-0.0753 0.0459,-0.0491 0.072,-0.11457 0.0262,-0.0655 0.0262,-0.14403 v -0.0687 q 0,-0.0753 -0.0262,-0.14076 -0.0262,-0.0655 -0.072,-0.11457 -0.0459,-0.0491 -0.11129,-0.0753 -0.0622,-0.0294 -0.13421,-0.0294 z m 0,-1.7382 v 0.78563 h 1.01804 q 0.072,0 0.13421,-0.0262 0.0655,-0.0294 0.1113,-0.0786 0.0458,-0.0491 0.072,-0.11457 0.0262,-0.0687 0.0262,-0.14403 v -0.0655 q 0,-0.072 -0.0295,-0.13749 -0.0262,-0.0655 -0.072,-0.11457 -0.0459,-0.0491 -0.10803,-0.0753 -0.0622,-0.0295 -0.13421,-0.0295 z"
       inkscape:connector-curvature="0" />
  </g>
</svg>
